<svg role="img" title="Sony Music" style="max-width: 204px;" xmlns:inkscape="http://www.inkscape.org/namespaces/inkscape" xmlns:sodipodi="http://sodipodi.sourceforge.net/DTD/sodipodi-0.dtd" xmlns="http://www.w3.org/2000/svg" xmlns:svg="http://www.w3.org/2000/svg" version="1.1" id="svg2" sodipodi:docname="SM_Horizontal_Oneline_Black_CMYK_Logo.eps" viewBox="0 0.01 516.13 116.1">
  <defs id="defs6"/>
  <sodipodi:namedview id="namedview4" pagecolor="#ffffff" bordercolor="#000000" borderopacity="0.25" inkscape:showpageshadow="2" inkscape:pageopacity="0.0" inkscape:pagecheckerboard="0" inkscape:deskcolor="#d1d1d1"/>
  <g id="g8" inkscape:groupmode="layer" inkscape:label="ink_ext_XXXXXX" transform="matrix(1.3333333,0,0,-1.3333333,0,116.10667)">
    <g id="g10" transform="scale(0.1)">
      <path d="m 3387.47,394.777 c 0,-22.238 -13.04,-34.566 -19.08,-39.242 -10.96,-8.765 -24.56,-14.496 -35.84,-17.715 -11.67,-3.316 -28.61,-8.425 -60.24,-8.425 -19.32,0 -29.33,2.293 -44.84,5.511 -19.14,3.996 -37.26,11.09 -43.49,13.969 -4.8,2.324 -6.35,-2.508 -6.35,-3.5 0,-2.012 0,-10.098 0,-10.098 h -29.64 v 74.614 h 26.82 c 0,-8.797 4.09,-17.746 6.79,-21 10.74,-13.164 22.24,-18.457 33.14,-22.391 9.57,-3.285 35.65,-9.789 57.42,-9.789 29.52,0 45.78,7.465 48.25,8.426 2.39,0.992 15.99,5.297 15.99,19.883 0,14.464 -12.83,17.902 -20.57,19.945 -9.76,2.355 -33.42,5.637 -57.58,8.148 -24.5,2.723 -49.24,6.071 -60.64,8.61 -25.68,5.511 -35.49,14.496 -41.66,20.164 0.44,-0.465 -13.94,12.261 -13.94,34.75 0,25.117 17.29,40.199 38.25,49.554 22.52,10.036 49.28,14.618 72.73,14.618 41.47,-0.215 75.26,-13.719 87.15,-20.071 4.9,-2.508 7.41,0.559 7.41,3.071 v 7.523 h 26.63 v -64.949 h -23.97 c -2.6,11.988 -9.63,20.629 -14.74,24.746 -4.56,3.687 -10.22,6.66 -15.06,9.047 -14.27,6.379 -36.61,12.265 -63.18,12.203 -22.24,0 -43.89,-4.09 -54.45,-10.688 -6.63,-4.273 -10.13,-9.539 -10.13,-15.609 0,-8.547 7.5,-13.258 11.22,-14.34 11.89,-3.687 41.9,-6.906 59.18,-8.797 16.39,-1.64 51.54,-6.316 66.9,-10.218 7.81,-1.829 16.73,-4.649 22.92,-7.465 7.03,-3.285 13.66,-7.188 19.14,-12.699 4.12,-3.965 15.46,-16.383 15.46,-37.786 z m 146.45,-23.476 c 0,0 -0.59,-8.422 10.21,-8.422 h 26.42 V 339.18 h -132.22 v 23.695 l 25.18,0.004 c 10.81,0 10.22,8.367 10.22,8.367 l 0.31,125.453 c 0,0 0.61,8.367 -10.17,8.367 h -25.2 v 23.727 h 131.56 v -23.73 h -26.46 c -10.78,0 -10.17,-8.368 -10.17,-8.368 z M 2992.11,528.73 h 110.32 v -23.57 c 0,0 -8.82,0 -23.97,0 -9.2,0 -11.34,-2.476 -11.92,-9.262 l 0.4,-98.89 c 0,-58.383 -53.43,-69.688 -108.65,-69.688 -54.14,0 -117.23,10.746 -117.23,71.575 v 91.554 h -0.03 c -0.09,10.25 -2.08,14.711 -13.23,14.711 -15.05,0 -23.07,0 -23.07,0 v 23.57 h 134.6 v -23.57 c 0,0 -8.17,0 -23.32,0 -10.87,0 -11.89,-3.469 -12.2,-13.441 v -95.766 c 0,-6.629 -2.42,-45.867 54.48,-45.867 60.8,0 68.82,24.062 68.82,46.086 l 0.09,95.422 c -0.25,9.418 -2.48,13.566 -13.16,13.566 -15.02,0 -21.93,0 -21.93,0 z m -223.74,0 v -23.632 h -20.72 c -14.99,0 -16.02,-8.328 -16.02,-15.578 l 0.62,-110.911 c 0,-6.722 -0.4,-15.734 9.17,-15.734 15.05,0 25.68,0 25.68,0 V 339.18 h -124.88 v 23.695 c 0,0 5.29,0 20.25,0 10.6,0 11.15,4.77 11.37,15.27 l -0.87,120.73 h -0.96 l -71.45,-159.758 h -40.6 l -72.08,159.758 h -0.93 l -0.06,-120.73 c 0.19,-10.5 0.78,-15.27 11.4,-15.27 14.96,0 20.23,0 20.23,0 V 339.18 h -103.05 v 23.695 c 0,0 10.67,0 25.68,0 9.6,0 9.17,9.012 9.17,15.734 V 489.52 c 0,7.25 -1.06,15.578 -16.02,15.578 h -20.72 v 23.632 l 122.31,0.004 56.12,-123.953 56.28,123.953 z m 1102.6,-122.058 c -0.12,-0.496 -0.21,-1.055 -0.31,-1.551 -5.63,-24.777 -22.11,-47.23 -45.74,-60.734 -23.97,-13.567 -59,-18.957 -93.14,-15.672 -35.67,3.5 -67.95,16.07 -90.9,36.578 -18.95,17.156 -28.99,40.016 -30.29,63.77 -0.09,1.828 -0.15,3.656 -0.15,5.48 0,18.09 5.26,36.145 15.58,51.695 4.12,6.285 9.13,12.172 14.86,17.465 24.29,21.992 66.34,36.238 106.76,37.356 v 0 h 0.34 c 1.61,0.031 3.22,0.062 4.8,0.062 41.29,-0.062 71.86,-16.23 83.32,-22.301 2.35,-1.211 4.15,-1.113 5.39,-0.433 1.3,0.742 1.98,2.199 1.98,3.5 v 7.523 h 26.67 v -70.125 l -25.68,0.008 c -3.47,17.375 -19.94,34.379 -31.62,40.355 -18.55,9.383 -32.99,12.668 -57.8,13.04 -0.3,0 -2.32,0 -3,0 -0.37,0 -0.74,0 -1.11,0 -22.43,-0.403 -43.71,-7.993 -58.32,-22.333 -14.31,-14.308 -21.84,-34.378 -21.84,-55.812 0,-21.367 7.65,-41.375 21.84,-55.656 10.71,-10.621 25.05,-17.809 40.75,-21.059 4.43,-0.961 8.92,-1.519 13.51,-1.797 1.52,-0.093 5.39,-0.187 5.85,-0.218 27.01,-0.372 43.92,6.32 57.05,12.542 14.13,6.754 29.02,23.602 33.45,38.317 z M 1847.48,505.16 c 0,0 9.47,0 24.52,0 11.12,0 13.11,-4.461 13.2,-14.711 l 1.38,-79.164 -130.26,117.445 h -93.18 v -23.632 h 20.74 c 14.94,0 16.01,-8.328 16.01,-15.578 V 378.609 c 0,-6.722 0.44,-15.734 -9.16,-15.734 -15.03,0 -25.7,0 -25.7,0 V 339.18 h 109.47 v 23.695 c 0,0 -11.69,0 -26.68,0 -10.61,0 -11.18,4.77 -11.36,15.27 v 94.96 L 1886.58,339.18 h 38.15 l -2.02,151.269 c 0.28,10.961 0.89,14.711 12.21,14.711 15.17,0 23.96,0 23.96,0 v 23.57 h -111.4 z M 1573.8,434.234 c 0,21.653 -7.49,41.536 -21.97,55.813 -14.85,14.59 -37.03,22.98 -60.04,22.98 -23.03,0 -45.12,-8.269 -60.1,-22.98 -14.3,-14.277 -21.86,-34.379 -21.86,-55.813 0,-21.339 7.65,-41.347 21.86,-55.625 14.98,-14.867 37.07,-23.074 60.1,-23.074 23.48,0 45,8.113 60.04,23.074 15.02,14.989 21.97,33.235 21.97,55.625 z m 30.09,69.036 c 20.25,-18.395 30.03,-43.485 30.03,-69.036 0,-24.683 -10.34,-51.043 -30.03,-69.254 -26.38,-24.621 -68.01,-37.628 -112.1,-37.628 -43.85,0 -84.48,13.222 -111.82,37.628 -20.41,18.493 -30.47,43.547 -30.47,69.254 0,25.426 10.4,50.825 30.47,69.161 25.3,22.953 69.94,37.414 111.82,37.414 46.65,0 83.75,-11.77 112.1,-37.539 z m 553.34,-89.352 c 1.79,2.074 69.06,78.855 72.11,82.199 6.49,7.465 10.02,9.043 18.71,9.043 8.05,0 23.9,0 23.9,0 v 23.57 h -107.07 v -23.57 c 0,0 13.13,0 16.04,0 4.77,0 6.07,-4.801 4.01,-7.371 l -45.34,-53.016 -1.44,-0.007 -44.29,53.023 c -3.24,3.965 -0.62,7.371 2.88,7.371 3.19,0 15.73,0 15.73,0 v 23.57 H 1981.8 v -23.57 c 0,0 15.1,0 23.26,0 10.13,0 16.66,-6.41 20.49,-10.558 3.06,-3.286 69.62,-78.766 71.19,-80.903 1.62,-2.074 1.62,-2.414 1.62,-3.344 V 371.73 c 0,-9.472 -9.97,-8.855 -9.97,-8.855 h -25.41 V 339.18 h 129.96 v 23.758 l -27.07,0.003 c 0,0 -9.57,-0.668 -9.57,8.356 0,0 0,36.805 0,38.262 0,0 -0.14,3.203 0.93,4.359 z m -867.21,19.512 c 4.13,-3.965 15.47,-17.25 15.47,-38.653 0,-22.238 -13.05,-34.566 -19.11,-39.242 -10.94,-8.765 -24.57,-14.496 -35.81,-17.715 -11.67,-3.347 -28.63,-8.457 -60.25,-8.457 -19.3,0 -29.35,2.325 -44.86,5.543 -19.11,3.996 -37.27,11.09 -43.43,13.969 -4.85,2.324 -6.4,-2.508 -6.4,-3.5 0,-2.012 0,-10.098 0,-10.098 h -29.65 v 74.614 h 26.84 c 0,-8.828 4.1,-17.778 6.79,-21 10.77,-13.161 22.25,-18.457 33.15,-22.422 9.56,-3.254 35.63,-9.758 57.39,-9.758 29.52,0 45.81,7.465 48.24,8.426 2.42,0.961 16.03,5.297 16.03,19.883 0,14.464 -12.83,17.16 -20.59,19.171 -9.74,2.387 -33.66,4.864 -57.83,7.34 -24.51,2.758 -48.97,6.504 -60.39,9.016 -25.66,5.543 -35.47,15.207 -41.66,20.812 0.45,-0.433 -13.92,12.789 -13.92,35.278 0,25.117 17.28,40.199 38.23,49.554 22.52,10.036 49.28,14.618 72.76,14.618 41.48,-0.215 75.22,-13.719 87.16,-20.071 4.84,-2.508 7.36,0.559 7.36,3.071 v 7.523 h 26.68 v -64.949 h -23.98 c -2.61,11.988 -9.65,20.597 -14.78,24.746 -4.55,3.687 -10.19,6.66 -15.07,9.047 -14.2,6.379 -36.58,12.265 -63.13,12.203 -22.26,0 -43.93,-4.09 -54.48,-10.688 -6.62,-4.273 -10.15,-9.539 -10.15,-15.609 0,-8.547 7.48,-12.172 11.17,-13.258 11.89,-3.683 41.99,-6.164 59.28,-8.051 16.4,-1.64 50.89,-6.257 66.24,-10.128 7.84,-1.86 17.41,-5.329 23.57,-8.176 7.02,-3.281 13.65,-7.496 19.13,-13.039 z M 352.973,46.6719 c -12.887,0 -23.336,-10.4492 -23.336,-23.336 C 329.637,10.4492 340.086,0 352.973,0 c 12.89,0 23.336,10.4492 23.336,23.3359 0,12.8868 -10.446,23.336 -23.336,23.336 z M 188.16,129.082 c -12.887,0 -23.336,-10.449 -23.336,-23.336 0,-12.8905 10.449,-23.3358 23.336,-23.3358 12.887,0 23.336,10.4453 23.336,23.3358 0,12.887 -10.449,23.336 -23.336,23.336 z m 576.86,82.406 c -12.887,0 -23.336,-10.445 -23.336,-23.336 0,-12.886 10.449,-23.336 23.336,-23.336 12.886,0 23.335,10.45 23.335,23.336 0,12.891 -10.449,23.336 -23.335,23.336 z m 0,82.41 c -12.887,0 -23.336,-10.449 -23.336,-23.335 0,-12.887 10.449,-23.336 23.336,-23.336 12.886,0 23.335,10.449 23.335,23.336 0,12.886 -10.449,23.335 -23.335,23.335 z m 0,82.411 c -12.887,0 -23.336,-10.45 -23.336,-23.336 0,-12.887 10.449,-23.336 23.336,-23.336 12.886,0 23.335,10.449 23.335,23.336 0,12.886 -10.449,23.336 -23.335,23.336 z m 0,82.406 c -12.887,0 -23.336,-10.445 -23.336,-23.332 0,-12.891 10.449,-23.336 23.336,-23.336 12.886,0 23.335,10.445 23.335,23.336 0,12.887 -10.449,23.332 -23.335,23.332 z m 0,82.41 c -12.887,0 -23.336,-10.449 -23.336,-23.336 0,-12.887 10.449,-23.336 23.336,-23.336 12.886,0 23.335,10.449 23.335,23.336 0,12.887 -10.449,23.336 -23.335,23.336 z m 0,82.41 c -12.887,0 -23.336,-10.449 -23.336,-23.336 0,-12.886 10.449,-23.336 23.336,-23.336 12.886,0 23.335,10.45 23.335,23.336 0,12.887 -10.449,23.336 -23.335,23.336 z m 0,82.406 c -12.887,0 -23.336,-10.445 -23.336,-23.332 0,-12.89 10.449,-23.336 23.336,-23.336 12.886,0 23.335,10.446 23.335,23.336 0,12.887 -10.449,23.332 -23.335,23.332 z M 105.742,211.488 c -12.8865,0 -23.3357,-10.445 -23.3357,-23.336 0,-12.886 10.4492,-23.336 23.3357,-23.336 12.887,0 23.336,10.45 23.336,23.336 0,12.891 -10.449,23.336 -23.336,23.336 z m 0,82.41 c -12.8865,0 -23.3357,-10.449 -23.3357,-23.335 0,-12.887 10.4492,-23.336 23.3357,-23.336 12.887,0 23.336,10.449 23.336,23.336 0,12.886 -10.449,23.335 -23.336,23.335 z m 741.684,82.411 c -12.891,0 -23.336,-10.45 -23.336,-23.336 0,-12.887 10.445,-23.336 23.336,-23.336 12.887,0 23.336,10.449 23.336,23.336 0,12.886 -10.449,23.336 -23.336,23.336 z m 0,82.406 c -12.891,0 -23.336,-10.445 -23.336,-23.332 0,-12.891 10.445,-23.336 23.336,-23.336 12.887,0 23.336,10.445 23.336,23.336 0,12.887 -10.449,23.332 -23.336,23.332 z m 0,82.41 c -12.891,0 -23.336,-10.449 -23.336,-23.336 0,-12.887 10.445,-23.336 23.336,-23.336 12.887,0 23.336,10.449 23.336,23.336 0,12.887 -10.449,23.336 -23.336,23.336 z M 23.3359,376.309 C 10.4492,376.309 0,365.859 0,352.973 c 0,-12.887 10.4492,-23.336 23.3359,-23.336 12.8868,0 23.336,10.449 23.336,23.336 0,12.886 -10.4492,23.336 -23.336,23.336 z m 0,82.406 C 10.4492,458.715 0,448.27 0,435.383 c 0,-12.891 10.4492,-23.336 23.3359,-23.336 12.8868,0 23.336,10.445 23.336,23.336 0,12.887 -10.4492,23.332 -23.336,23.332 z m 0,82.41 C 10.4492,541.125 0,530.676 0,517.789 c 0,-12.887 10.4492,-23.336 23.3359,-23.336 12.8868,0 23.336,10.449 23.336,23.336 0,12.887 -10.4492,23.336 -23.336,23.336 z M 105.742,376.309 c -12.8865,0 -23.3357,-10.45 -23.3357,-23.336 0,-12.887 10.4492,-23.336 23.3357,-23.336 12.887,0 23.336,10.449 23.336,23.336 0,12.886 -10.449,23.336 -23.336,23.336 z m 0,82.406 c -12.8865,0 -23.3357,-10.445 -23.3357,-23.332 0,-12.891 10.4492,-23.336 23.3357,-23.336 12.887,0 23.336,10.445 23.336,23.336 0,12.887 -10.449,23.332 -23.336,23.332 z m 0,82.41 c -12.8865,0 -23.3357,-10.449 -23.3357,-23.336 0,-12.887 10.4492,-23.336 23.3357,-23.336 12.887,0 23.336,10.449 23.336,23.336 0,12.887 -10.449,23.336 -23.336,23.336 z m 0,82.41 c -12.8865,0 -23.3357,-10.449 -23.3357,-23.336 0,-12.886 10.4492,-23.336 23.3357,-23.336 12.887,0 23.336,10.45 23.336,23.336 0,12.887 -10.449,23.336 -23.336,23.336 z m 0,82.406 c -12.8865,0 -23.3357,-10.445 -23.3357,-23.332 0,-12.89 10.4492,-23.336 23.3357,-23.336 12.887,0 23.336,10.446 23.336,23.336 0,12.887 -10.449,23.332 -23.336,23.332 z M 188.16,211.488 c -12.887,0 -23.336,-10.445 -23.336,-23.336 0,-12.886 10.449,-23.336 23.336,-23.336 12.887,0 23.336,10.45 23.336,23.336 0,12.891 -10.449,23.336 -23.336,23.336 z m 0,82.41 c -12.887,0 -23.336,-10.449 -23.336,-23.335 0,-12.887 10.449,-23.336 23.336,-23.336 12.887,0 23.336,10.449 23.336,23.336 0,12.886 -10.449,23.335 -23.336,23.335 z m 0,82.411 c -12.887,0 -23.336,-10.45 -23.336,-23.336 0,-12.887 10.449,-23.336 23.336,-23.336 12.887,0 23.336,10.449 23.336,23.336 0,12.886 -10.449,23.336 -23.336,23.336 z m 0,82.406 c -12.887,0 -23.336,-10.445 -23.336,-23.332 0,-12.891 10.449,-23.336 23.336,-23.336 12.887,0 23.336,10.445 23.336,23.336 0,12.887 -10.449,23.332 -23.336,23.332 z m 0,82.41 c -12.887,0 -23.336,-10.449 -23.336,-23.336 0,-12.887 10.449,-23.336 23.336,-23.336 12.887,0 23.336,10.449 23.336,23.336 0,12.887 -10.449,23.336 -23.336,23.336 z m 0,82.41 c -12.887,0 -23.336,-10.449 -23.336,-23.336 0,-12.886 10.449,-23.336 23.336,-23.336 12.887,0 23.336,10.45 23.336,23.336 0,12.887 -10.449,23.336 -23.336,23.336 z m 0,82.406 c -12.887,0 -23.336,-10.445 -23.336,-23.332 0,-12.89 10.449,-23.336 23.336,-23.336 12.887,0 23.336,10.446 23.336,23.336 0,12.887 -10.449,23.332 -23.336,23.332 z m 0,82.411 c -12.887,0 -23.336,-10.446 -23.336,-23.336 0,-12.887 10.449,-23.336 23.336,-23.336 12.887,0 23.336,10.449 23.336,23.336 0,12.89 -10.449,23.336 -23.336,23.336 z m 494.453,-659.27 c -12.89,0 -23.336,-10.449 -23.336,-23.336 0,-12.8905 10.446,-23.3358 23.336,-23.3358 12.887,0 23.332,10.4453 23.332,23.3358 0,12.887 -10.445,23.336 -23.332,23.336 z m 0,82.406 c -12.89,0 -23.336,-10.445 -23.336,-23.336 0,-12.886 10.446,-23.336 23.336,-23.336 12.887,0 23.332,10.45 23.332,23.336 0,12.891 -10.445,23.336 -23.332,23.336 z m 0,82.41 c -12.89,0 -23.336,-10.449 -23.336,-23.335 0,-12.887 10.446,-23.336 23.336,-23.336 12.887,0 23.332,10.449 23.332,23.336 0,12.886 -10.445,23.335 -23.332,23.335 z m 0,82.411 c -12.89,0 -23.336,-10.45 -23.336,-23.336 0,-12.887 10.446,-23.336 23.336,-23.336 12.887,0 23.332,10.449 23.332,23.336 0,12.886 -10.445,23.336 -23.332,23.336 z m 0,82.406 c -12.89,0 -23.336,-10.445 -23.336,-23.332 0,-12.891 10.446,-23.336 23.336,-23.336 12.887,0 23.332,10.445 23.332,23.336 0,12.887 -10.445,23.332 -23.332,23.332 z m 0,82.41 c -12.89,0 -23.336,-10.449 -23.336,-23.336 0,-12.887 10.446,-23.336 23.336,-23.336 12.887,0 23.332,10.449 23.332,23.336 0,12.887 -10.445,23.336 -23.332,23.336 z m 0,82.41 c -12.89,0 -23.336,-10.449 -23.336,-23.336 0,-12.886 10.446,-23.336 23.336,-23.336 12.887,0 23.332,10.45 23.332,23.336 0,12.887 -10.445,23.336 -23.332,23.336 z m 0,82.406 c -12.89,0 -23.336,-10.445 -23.336,-23.332 0,-12.89 10.446,-23.336 23.336,-23.336 12.887,0 23.332,10.446 23.332,23.336 0,12.887 -10.445,23.332 -23.332,23.332 z m 0,82.411 c -12.89,0 -23.336,-10.446 -23.336,-23.336 0,-12.887 10.446,-23.336 23.336,-23.336 12.887,0 23.332,10.449 23.332,23.336 0,12.89 -10.445,23.336 -23.332,23.336 z m -82.41,-659.27 c -12.887,0 -23.332,-10.449 -23.332,-23.336 0,-12.8905 10.445,-23.3358 23.332,-23.3358 12.891,0 23.34,10.4453 23.34,23.3358 0,12.887 -10.449,23.336 -23.34,23.336 z m 0,82.406 c -12.887,0 -23.332,-10.445 -23.332,-23.336 0,-12.886 10.445,-23.336 23.332,-23.336 12.891,0 23.34,10.45 23.34,23.336 0,12.891 -10.449,23.336 -23.34,23.336 z m 0,82.41 c -12.887,0 -23.332,-10.449 -23.332,-23.335 0,-12.887 10.445,-23.336 23.332,-23.336 12.891,0 23.34,10.449 23.34,23.336 0,12.886 -10.449,23.335 -23.34,23.335 z m 0,82.411 c -12.887,0 -23.332,-10.45 -23.332,-23.336 0,-12.887 10.445,-23.336 23.332,-23.336 12.891,0 23.34,10.449 23.34,23.336 0,12.886 -10.449,23.336 -23.34,23.336 z m 0,82.406 c -12.887,0 -23.332,-10.445 -23.332,-23.332 0,-12.891 10.445,-23.336 23.332,-23.336 12.891,0 23.34,10.445 23.34,23.336 0,12.887 -10.449,23.332 -23.34,23.332 z m 0,82.41 c -12.887,0 -23.332,-10.449 -23.332,-23.336 0,-12.887 10.445,-23.336 23.332,-23.336 12.891,0 23.34,10.449 23.34,23.336 0,12.887 -10.449,23.336 -23.34,23.336 z m 0,82.41 c -12.887,0 -23.332,-10.449 -23.332,-23.336 0,-12.886 10.445,-23.336 23.332,-23.336 12.891,0 23.34,10.45 23.34,23.336 0,12.887 -10.449,23.336 -23.34,23.336 z m 0,82.406 c -12.887,0 -23.332,-10.445 -23.332,-23.332 0,-12.89 10.445,-23.336 23.332,-23.336 12.891,0 23.34,10.446 23.34,23.336 0,12.887 -10.449,23.332 -23.34,23.332 z m 0,82.411 c -12.887,0 -23.332,-10.446 -23.332,-23.336 0,-12.887 10.445,-23.336 23.332,-23.336 12.891,0 23.34,10.449 23.34,23.336 0,12.89 -10.449,23.336 -23.34,23.336 z M 270.566,129.082 c -12.886,0 -23.336,-10.449 -23.336,-23.336 0,-12.8905 10.45,-23.3358 23.336,-23.3358 12.887,0 23.336,10.4453 23.336,23.3358 0,12.887 -10.449,23.336 -23.336,23.336 z m 0,82.406 c -12.886,0 -23.336,-10.445 -23.336,-23.336 0,-12.886 10.45,-23.336 23.336,-23.336 12.887,0 23.336,10.45 23.336,23.336 0,12.891 -10.449,23.336 -23.336,23.336 z m 0,82.41 c -12.886,0 -23.336,-10.449 -23.336,-23.335 0,-12.887 10.45,-23.336 23.336,-23.336 12.887,0 23.336,10.449 23.336,23.336 0,12.886 -10.449,23.335 -23.336,23.335 z m 0,82.411 c -12.886,0 -23.336,-10.45 -23.336,-23.336 0,-12.887 10.45,-23.336 23.336,-23.336 12.887,0 23.336,10.449 23.336,23.336 0,12.886 -10.449,23.336 -23.336,23.336 z m 0,82.406 c -12.886,0 -23.336,-10.445 -23.336,-23.332 0,-12.891 10.45,-23.336 23.336,-23.336 12.887,0 23.336,10.445 23.336,23.336 0,12.887 -10.449,23.332 -23.336,23.332 z m 0,82.41 c -12.886,0 -23.336,-10.449 -23.336,-23.336 0,-12.887 10.45,-23.336 23.336,-23.336 12.887,0 23.336,10.449 23.336,23.336 0,12.887 -10.449,23.336 -23.336,23.336 z m 0,82.41 c -12.886,0 -23.336,-10.449 -23.336,-23.336 0,-12.886 10.45,-23.336 23.336,-23.336 12.887,0 23.336,10.45 23.336,23.336 0,12.887 -10.449,23.336 -23.336,23.336 z m 0,82.406 c -12.886,0 -23.336,-10.445 -23.336,-23.332 0,-12.89 10.45,-23.336 23.336,-23.336 12.887,0 23.336,10.446 23.336,23.336 0,12.887 -10.449,23.332 -23.336,23.332 z m 0,82.411 c -12.886,0 -23.336,-10.446 -23.336,-23.336 0,-12.887 10.45,-23.336 23.336,-23.336 12.887,0 23.336,10.449 23.336,23.336 0,12.89 -10.449,23.336 -23.336,23.336 z m 82.407,-659.27 c -12.887,0 -23.336,-10.449 -23.336,-23.336 0,-12.8905 10.449,-23.3358 23.336,-23.3358 12.89,0 23.336,10.4453 23.336,23.3358 0,12.887 -10.446,23.336 -23.336,23.336 z m 0,82.406 c -12.887,0 -23.336,-10.445 -23.336,-23.336 0,-12.886 10.449,-23.336 23.336,-23.336 12.89,0 23.336,10.45 23.336,23.336 0,12.891 -10.446,23.336 -23.336,23.336 z m 0,82.41 c -12.887,0 -23.336,-10.449 -23.336,-23.335 0,-12.887 10.449,-23.336 23.336,-23.336 12.89,0 23.336,10.449 23.336,23.336 0,12.886 -10.446,23.335 -23.336,23.335 z m 0,82.411 c -12.887,0 -23.336,-10.45 -23.336,-23.336 0,-12.887 10.449,-23.336 23.336,-23.336 12.89,0 23.336,10.449 23.336,23.336 0,12.886 -10.446,23.336 -23.336,23.336 z m 0,82.406 c -12.887,0 -23.336,-10.445 -23.336,-23.332 0,-12.891 10.449,-23.336 23.336,-23.336 12.89,0 23.336,10.445 23.336,23.336 0,12.887 -10.446,23.332 -23.336,23.332 z m 0,82.41 c -12.887,0 -23.336,-10.449 -23.336,-23.336 0,-12.887 10.449,-23.336 23.336,-23.336 12.89,0 23.336,10.449 23.336,23.336 0,12.887 -10.446,23.336 -23.336,23.336 z m 0,82.41 c -12.887,0 -23.336,-10.449 -23.336,-23.336 0,-12.886 10.449,-23.336 23.336,-23.336 12.89,0 23.336,10.45 23.336,23.336 0,12.887 -10.446,23.336 -23.336,23.336 z m 0,82.406 c -12.887,0 -23.336,-10.445 -23.336,-23.332 0,-12.89 10.449,-23.336 23.336,-23.336 12.89,0 23.336,10.446 23.336,23.336 0,12.887 -10.446,23.332 -23.336,23.332 z m 0,82.411 c -12.887,0 -23.336,-10.446 -23.336,-23.336 0,-12.887 10.449,-23.336 23.336,-23.336 12.89,0 23.336,10.449 23.336,23.336 0,12.89 -10.446,23.336 -23.336,23.336 z m 0,82.41 c -12.887,0 -23.336,-10.449 -23.336,-23.336 0,-12.887 10.449,-23.336 23.336,-23.336 12.89,0 23.336,10.449 23.336,23.336 0,12.887 -10.446,23.336 -23.336,23.336 z M 517.785,46.6719 c -12.887,0 -23.336,-10.4492 -23.336,-23.336 C 494.449,10.4492 504.898,0 517.785,0 c 12.891,0 23.336,10.4492 23.336,23.3359 0,12.8868 -10.445,23.336 -23.336,23.336 z m 0,82.4101 c -12.887,0 -23.336,-10.449 -23.336,-23.336 0,-12.8905 10.449,-23.3358 23.336,-23.3358 12.891,0 23.336,10.4453 23.336,23.3358 0,12.887 -10.445,23.336 -23.336,23.336 z m 0,82.406 c -12.887,0 -23.336,-10.445 -23.336,-23.336 0,-12.886 10.449,-23.336 23.336,-23.336 12.891,0 23.336,10.45 23.336,23.336 0,12.891 -10.445,23.336 -23.336,23.336 z m 0,82.41 c -12.887,0 -23.336,-10.449 -23.336,-23.335 0,-12.887 10.449,-23.336 23.336,-23.336 12.891,0 23.336,10.449 23.336,23.336 0,12.886 -10.445,23.335 -23.336,23.335 z m 0,82.411 c -12.887,0 -23.336,-10.45 -23.336,-23.336 0,-12.887 10.449,-23.336 23.336,-23.336 12.891,0 23.336,10.449 23.336,23.336 0,12.886 -10.445,23.336 -23.336,23.336 z m 0,82.406 c -12.887,0 -23.336,-10.445 -23.336,-23.332 0,-12.891 10.449,-23.336 23.336,-23.336 12.891,0 23.336,10.445 23.336,23.336 0,12.887 -10.445,23.332 -23.336,23.332 z m 0,82.41 c -12.887,0 -23.336,-10.449 -23.336,-23.336 0,-12.887 10.449,-23.336 23.336,-23.336 12.891,0 23.336,10.449 23.336,23.336 0,12.887 -10.445,23.336 -23.336,23.336 z m 0,82.41 c -12.887,0 -23.336,-10.449 -23.336,-23.336 0,-12.886 10.449,-23.336 23.336,-23.336 12.891,0 23.336,10.45 23.336,23.336 0,12.887 -10.445,23.336 -23.336,23.336 z m 0,82.406 c -12.887,0 -23.336,-10.445 -23.336,-23.332 0,-12.89 10.449,-23.336 23.336,-23.336 12.891,0 23.336,10.446 23.336,23.336 0,12.887 -10.445,23.332 -23.336,23.332 z m 0,82.411 c -12.887,0 -23.336,-10.446 -23.336,-23.336 0,-12.887 10.449,-23.336 23.336,-23.336 12.891,0 23.336,10.449 23.336,23.336 0,12.89 -10.445,23.336 -23.336,23.336 z m 0,82.41 c -12.887,0 -23.336,-10.449 -23.336,-23.336 0,-12.887 10.449,-23.336 23.336,-23.336 12.891,0 23.336,10.449 23.336,23.336 0,12.887 -10.445,23.336 -23.336,23.336 z M 435.379,46.6719 c -12.887,0 -23.332,-10.4492 -23.332,-23.336 C 412.047,10.4492 422.492,0 435.379,0 c 12.891,0 23.336,10.4492 23.336,23.3359 0,12.8868 -10.445,23.336 -23.336,23.336 z m 0,82.4101 c -12.887,0 -23.332,-10.449 -23.332,-23.336 0,-12.8905 10.445,-23.3358 23.332,-23.3358 12.891,0 23.336,10.4453 23.336,23.3358 0,12.887 -10.445,23.336 -23.336,23.336 z m 0,82.406 c -12.887,0 -23.332,-10.445 -23.332,-23.336 0,-12.886 10.445,-23.336 23.332,-23.336 12.891,0 23.336,10.45 23.336,23.336 0,12.891 -10.445,23.336 -23.336,23.336 z m 0,82.41 c -12.887,0 -23.332,-10.449 -23.332,-23.335 0,-12.887 10.445,-23.336 23.332,-23.336 12.891,0 23.336,10.449 23.336,23.336 0,12.886 -10.445,23.335 -23.336,23.335 z m 0,82.411 c -12.887,0 -23.332,-10.45 -23.332,-23.336 0,-12.887 10.445,-23.336 23.332,-23.336 12.891,0 23.336,10.449 23.336,23.336 0,12.886 -10.445,23.336 -23.336,23.336 z m 0,82.406 c -12.887,0 -23.332,-10.445 -23.332,-23.332 0,-12.891 10.445,-23.336 23.332,-23.336 12.891,0 23.336,10.445 23.336,23.336 0,12.887 -10.445,23.332 -23.336,23.332 z m 0,82.41 c -12.887,0 -23.332,-10.449 -23.332,-23.336 0,-12.887 10.445,-23.336 23.332,-23.336 12.891,0 23.336,10.449 23.336,23.336 0,12.887 -10.445,23.336 -23.336,23.336 z m 0,82.41 c -12.887,0 -23.332,-10.449 -23.332,-23.336 0,-12.886 10.445,-23.336 23.332,-23.336 12.891,0 23.336,10.45 23.336,23.336 0,12.887 -10.445,23.336 -23.336,23.336 z m 0,82.406 c -12.887,0 -23.332,-10.445 -23.332,-23.332 0,-12.89 10.445,-23.336 23.332,-23.336 12.891,0 23.336,10.446 23.336,23.336 0,12.887 -10.445,23.332 -23.336,23.332 z m 0,82.411 c -12.887,0 -23.332,-10.446 -23.332,-23.336 0,-12.887 10.445,-23.336 23.332,-23.336 12.891,0 23.336,10.449 23.336,23.336 0,12.89 -10.445,23.336 -23.336,23.336 z m 23.336,59.074 c 0,-12.887 -10.445,-23.336 -23.336,-23.336 -12.887,0 -23.332,10.449 -23.332,23.336 0,12.887 10.445,23.336 23.332,23.336 12.891,0 23.336,-10.449 23.336,-23.336" style="fill:#231f20;fill-opacity:1;fill-rule:nonzero;stroke:none" id="path12"/>
    </g>
  </g>
</svg>